# xmcd CD database file
#
# Track frame offsets:
#	150
#	15497
#	30137
#	45430
#	56897
#	75227
#	90985
#	105317
#	119252
#	137032
#	147445
#	162617
#	178570
#
# Disc length: 2744 seconds
#
# Revision: 27
# Processed by: cddbd v1.5.2PL0 Copyright (c) Steve Scherf et al.
# Submitted via: CDex 2.16
#
DISCID=960ab60d
DTITLE=Frank Sinatra - Sinatra Duets 1
DYEAR=1993
DGENRE=big
TTITLE0=Frank Sinatra, Luther Vandross - The Lady Is A Tramp
TTITLE1=Frank Sinatra, Aretha Franklin - What Now My Love
TTITLE2=Frank Sinatra, Barbra Streisand - I've Got A Crush On You
TTITLE3=Frank Sinatra, Julio Iglesias - Summer Wind
TTITLE4=Frank Sinatra, Gloria Estefan - Come Rain Or Come Shine
TTITLE5=Frank Sinatra, Tony Bennett - New York, New York
TTITLE6=Frank Sinatra, Natalie Cole - They Can't Take That Away From Me
TTITLE7=Frank Sinatra, Charles Aznavour - You Make Me Feel So Young
TTITLE8=Frank Sinatra, Carly Simon - Guess I'll Hang My Tears Out To Dry | In The Wee Small Hours Of The Morning
TTITLE9=Frank Sinatra, Liza Minnelli - I've Got The World On A String
TTITLE10=Frank Sinatra, Anita Baker - Witchcraft
TTITLE11=Frank Sinatra, Bono - I've Got You Under My Skin
TTITLE12=Frank Sinatra, Kenny G - All The Way | One For My Baby (And One More For The Road)
EXTD=YEAR: 1993
EXTT0=
EXTT1=
EXTT2=
EXTT3=
EXTT4=
EXTT5=
EXTT6=
EXTT7=
EXTT8=
EXTT9=
EXTT10=
EXTT11=
EXTT12=
PLAYORDER=
